<svg xmlns="http://www.w3.org/2000/svg" viewBox="0 0 512 512"><defs><style>.cls-1{fill:#00d178;}.cls-2{fill:#fff;}</style></defs><title>gabby</title><g id="Layer_1" data-name="Layer 1"><g id="logo-gab.com-white-black-01-box-green"><rect class="cls-1" width="512" height="512"/></g></g><g id="Layer_2" data-name="Layer 2"><path class="cls-2" d="M290.53,133.27h50.12V271.78c0,66.47-36.07,98.22-90.21,98.22-24.74,0-46.63-8.54-60.14-20.15l20-37.77c11.55,7.88,22.56,12.59,37.26,12.59,26.59,0,42.93-19.16,42.93-46.86v-8.54c-11.22,13.57-27.24,20.14-44.78,20.14-42.92,0-75.5-35.91-75.5-80.58s32.58-80.59,75.5-80.59c17.54,0,33.56,5.47,44.78,19ZM252,245.4c20.16,0,37-17,37-37.23s-16.88-37.23-37-37.23-37,17-37,37.23S231.81,245.4,252,245.4Z"/></g></svg>